<svg height="496pt" viewBox="-40 0 496 496" width="496pt" xmlns="http://www.w3.org/2000/svg"><path d="m415.199219 84.617188c-.039063-.074219 0-.160157-.054688-.242188l-15.632812-30.773438c-.238281-.71875-.578125-1.398437-1.015625-2.015624l-23.953125-47.203126c-1.363281-2.6875-4.121094-4.382812-7.136719-4.382812h-.046875c-3.027344.0195312-5.789063 1.746094-7.128906 4.464844l-39.40625 80c0 .0625 0 .136718-.046875.199218-.5 1.042969-.765625 2.179688-.777344 3.335938v368c.027344 22.082031 17.917969 39.972656 40 40h16c22.082031-.027344 39.972656-17.917969 40-40v-368c-.011719-1.171875-.285156-2.328125-.800781-3.382812zm-66.457031-20.617188h38.105468l8.121094 16h-54.113281zm11.257812 344v-312h16v312zm32-312h8v312h-8zm-48 0v312h-8v-312zm-8 328h64v8h-64zm31.511719-398.113281 11.222656 22.113281h-22.109375zm8.488281 454.113281h-16c-13.253906 0-24-10.746094-24-24v-8h64v8c0 13.253906-10.746094 24-24 24zm0 0"/><path d="m384 456h-24c-4.417969 0-8 3.582031-8 8s3.582031 8 8 8h24c4.417969 0 8-3.582031 8-8s-3.582031-8-8-8zm0 0"/><path d="m288 24h-48v-16c0-4.417969-3.582031-8-8-8s-8 3.582031-8 8v16h-64v-16c0-4.417969-3.582031-8-8-8s-8 3.582031-8 8v16h-64v-16c0-4.417969-3.582031-8-8-8s-8 3.582031-8 8v16h-48c-8.835938 0-16 7.164062-16 16v440c0 8.835938 7.164062 16 16 16h272c8.835938 0 16-7.164062 16-16v-440c0-8.835938-7.164062-16-16-16zm-272 456v-440h48v16c0 4.417969 3.582031 8 8 8s8-3.582031 8-8v-16h64v16c0 4.417969 3.582031 8 8 8s8-3.582031 8-8v-16h64v16c0 4.417969 3.582031 8 8 8s8-3.582031 8-8v-16h48v440zm0 0"/><path d="m80 448h-48c-4.417969 0-8 3.582031-8 8s3.582031 8 8 8h48c4.417969 0 8-3.582031 8-8s-3.582031-8-8-8zm0 0"/><path d="m112 448h-8c-4.417969 0-8 3.582031-8 8s3.582031 8 8 8h8c4.417969 0 8-3.582031 8-8s-3.582031-8-8-8zm0 0"/><path d="m216 215.433594v-103.433594c0-4.417969-3.582031-8-8-8h-56v-16c0-4.417969-3.582031-8-8-8h-48c-4.417969 0-8 3.582031-8 8v48c0 4.417969 3.582031 8 8 8h48c4.417969 0 8-3.582031 8-8v-16h48v95.433594l-40.566406 40.566406h-55.433594v-16c0-4.417969-3.582031-8-8-8h-48c-4.417969 0-8 3.582031-8 8v48c0 4.417969 3.582031 8 8 8h48c4.417969 0 8-3.582031 8-8v-16h55.433594l40.566406 40.566406v48.234375c-20.121094 4.105469-33.863281 22.78125-31.796875 43.210938 2.0625 20.429687 19.261719 35.980469 39.796875 35.980469s37.734375-15.550782 39.796875-35.980469c2.066406-20.429688-11.675781-39.105469-31.796875-43.210938v-48.242187l42.910156-42.910156c3.125-3.125 3.125-8.1875 0-11.3125zm-80-87.433594h-32v-32h32zm-48 152h-32v-32h32zm144 120c0 13.253906-10.746094 24-24 24s-24-10.746094-24-24 10.746094-24 24-24 24 10.746094 24 24zm-22.398438-103.671875c-1.023437-.429687-2.179687-.429687-3.203124 0l-30.726563-30.726563c.429687-1.023437.429687-2.179687 0-3.203124l32.328125-32.34375 33.945312 33.945312zm0 0"/></svg>