<?xml version="1.0" encoding="UTF-8"?> <svg xmlns="http://www.w3.org/2000/svg" id="Layer_1" data-name="Layer 1" viewBox="0 0 193.53 51.76"><defs><style>.cls-1{fill:#898b8d;}.cls-2{fill:#faac2c;}</style></defs><title>logo-alfasim-color</title><path class="cls-1" d="M65.46,34.79H56.19l-1.53,4.5H48.37s0,0,0,0l9.06-24.54h6.9l9.05,24.54s0,0,0,0H67a0,0,0,0,1,0,0l-1.54-4.5Zm-1.54-4.56-3.06-9h0l-3.1,9.05h6.17S63.93,30.24,63.92,30.23Z"></path><path class="cls-1" d="M81.42,34.72h8s0,0,0,0V39.3a0,0,0,0,1,0,0H75.43a0,0,0,0,1,0,0V14.58s0,0,0,0h6s0,0,0,0V34.71Z"></path><path class="cls-1" d="M107.76,14.58v4.73a0,0,0,0,1,0,0H97.62a0,0,0,0,0,0,0v5.4h7.83a0,0,0,0,1,0,0v4.53H97.61v10h-6a0,0,0,0,1,0,0V14.58s0,0,0,0h16.11Z"></path><path class="cls-1" d="M123.63,34.79h-9.27l-1.53,4.5h-6.29s0,0,0,0l9.06-24.54h6.9l9,24.54s0,0,0,0h-6.34a0,0,0,0,1,0,0l-1.54-4.5Zm-1.54-4.56-3.06-9h0l-3.1,9.05h6.17S122.1,30.24,122.09,30.23Z"></path><path class="cls-1" d="M146,21.39a8.06,8.06,0,0,1,2.78,4.88,0,0,0,0,1,0,0h-5.59a3.06,3.06,0,0,0-1.1-1.86,3.32,3.32,0,0,0-2.15-.69,2.36,2.36,0,0,0-1.54.44,1.53,1.53,0,0,0-.53,1.24,1.46,1.46,0,0,0,1,1.37,15.72,15.72,0,0,0,3,.91,28.55,28.55,0,0,1,3.68,1.07A6.12,6.12,0,0,1,148,30.52,4.9,4.9,0,0,1,149,33.81a5,5,0,0,1-.91,3,6,6,0,0,1-2.62,2,10.29,10.29,0,0,1-4.06.73,10.45,10.45,0,0,1-6.34-1.75,7.36,7.36,0,0,1-2.9-5,0,0,0,0,1,0,0H138s0,0,0,0A2.6,2.6,0,0,0,139,34.72a4,4,0,0,0,2.4.67,2.27,2.27,0,0,0,1.54-.47,1.6,1.6,0,0,0,.52-1.25,1.5,1.5,0,0,0-1-1.45,18.19,18.19,0,0,0-3.13-.93,24.37,24.37,0,0,1-3.57-1,5.89,5.89,0,0,1-2.42-1.69,4.77,4.77,0,0,1-1-3.21,5.22,5.22,0,0,1,2-4.25A8.73,8.73,0,0,1,140,19.53,8.94,8.94,0,0,1,146,21.39Z"></path><path class="cls-1" d="M152.14,12a4.18,4.18,0,0,1,5.18,0,3,3,0,0,1,0,4.48,4.23,4.23,0,0,1-5.15,0,3.12,3.12,0,0,1-1-2.74A2.83,2.83,0,0,1,152.14,12Zm5.56,7.76V39.3h-6a0,0,0,0,1,0,0V19.79h6Z"></path><path class="cls-1" d="M191.47,21.79A8.71,8.71,0,0,1,193.53,28V39.3a0,0,0,0,1,0,0h-5.94V28.67a4,4,0,0,0-1-2.89,3.6,3.6,0,0,0-2.72-1,3.67,3.67,0,0,0-2.81,1.1,4.37,4.37,0,0,0-1,3.1V39.3a0,0,0,0,1,0,0h-6V28.67a4,4,0,0,0-1-2.89,3.52,3.52,0,0,0-2.69-1,3.78,3.78,0,0,0-2.84,1.08A4.33,4.33,0,0,0,166.48,29V39.3a0,0,0,0,1,0,0h-6a0,0,0,0,1,0,0V19.79h6v3.26s0,0,0,0a5.94,5.94,0,0,1,2.34-2.55,7.18,7.18,0,0,1,3.73-.94,7.54,7.54,0,0,1,4,1,6.61,6.61,0,0,1,2.58,2.94s0,0,0,0a7.84,7.84,0,0,1,2.77-2.89,8,8,0,0,1,9.57,1.14Z"></path><polygon class="cls-2" points="13.4 25.88 25.88 18.68 25.88 29.85 36.66 36.07 36.66 12.45 36.66 0 0 21.17 0 30.59 36.66 51.76 36.66 39.31 13.4 25.88"></polygon></svg>
