<?xml version="1.0"?>
<svg xmlns="http://www.w3.org/2000/svg" id="Layer_1" data-name="Layer 1" viewBox="0 0 128 128" width="512" height="512"><title>LEGO</title><path d="M68.833,98.1H19.074a2.1,2.1,0,0,1-2.1-2.1V74.813a2.1,2.1,0,0,1,2.1-2.1H34.434a1.25,1.25,0,0,0,1.25-1.25V65.514c0-2.05-3.211-2.781-6.216-2.781s-6.217.73-6.217,2.781v4.7H19.074a4.605,4.605,0,0,0-4.6,4.6V96a4.605,4.605,0,0,0,4.6,4.6H68.833a1.25,1.25,0,0,0,0-2.5ZM25.751,65.848a9.021,9.021,0,0,1,3.717-.615,9.019,9.019,0,0,1,3.716.615v4.365H25.751Z"/><path d="M74.69,98.1h-.94a1.25,1.25,0,0,0,0,2.5h.94a1.25,1.25,0,0,0,0-2.5Z"/><path d="M82.118,70.213H79.671L41.856,58.955a2.1,2.1,0,0,1-1.413-2.612l4.8-16.123a1.25,1.25,0,1,0-2.4-.713l-4.8,16.122a4.6,4.6,0,0,0,3.1,5.722l5.962,1.775c-1.57.408-2.726,1.16-2.726,2.388v4.7H39.125a1.25,1.25,0,0,0,0,2.5H82.118a2.1,2.1,0,0,1,2.1,2.1V96a2.1,2.1,0,0,1-2.1,2.1H79.083a1.25,1.25,0,0,0,0,2.5h3.035a4.605,4.605,0,0,0,4.6-4.6V74.813A4.605,4.605,0,0,0,82.118,70.213Zm-11.21,0h-14.1v-4.2Zm-24.028,0V65.848a9.021,9.021,0,0,1,3.717-.615,9.019,9.019,0,0,1,3.716.615v4.365Z"/><path d="M112.971,52.434a4.571,4.571,0,0,0-2.733-2.22l-4-1.192,1.341-4.5c.2-.681.091-1.727-1.59-2.849a13.7,13.7,0,0,0-3.575-1.59,14.159,14.159,0,0,0-3.862-.625c-2.021.02-2.686.835-2.889,1.516l-1.341,4.5-8.335-2.481,1.341-4.5c.2-.681.091-1.727-1.59-2.849a13.673,13.673,0,0,0-3.574-1.59,14.307,14.307,0,0,0-3.862-.624c-2.021.02-2.686.835-2.889,1.516l-1.341,4.5-2.62-.78a1.25,1.25,0,0,0-.713,2.4l38.79,11.548a2.1,2.1,0,0,1,1.413,2.612L104.892,75.53a2.105,2.105,0,0,1-2.612,1.413L91.2,73.647a1.25,1.25,0,0,0-.713,2.4l11.076,3.3a4.6,4.6,0,0,0,5.722-3.1l6.046-20.308A4.57,4.57,0,0,0,112.971,52.434ZM97.96,42a11.557,11.557,0,0,1,7.124,2.121l-1.246,4.183-7.123-2.121ZM77.71,35.976a9.03,9.03,0,0,1,3.737.472A9.015,9.015,0,0,1,84.833,38.1L83.587,42.28l-7.123-2.121Z"/><path d="M44.935,36.876a1.251,1.251,0,0,0,1.555-.841A2.106,2.106,0,0,1,49.1,34.622l17.8,5.3a1.25,1.25,0,0,0,.713-2.4l-1.881-.56,1.341-4.5c.2-.681.091-1.727-1.59-2.849a15.228,15.228,0,0,0-7.36-2.214h-.076c-2.021.02-2.687.835-2.89,1.516l-1.34,4.5-4-1.192a4.608,4.608,0,0,0-5.722,3.1A1.25,1.25,0,0,0,44.935,36.876Zm12.524-6.929a9.026,9.026,0,0,1,3.737.472,9.02,9.02,0,0,1,3.387,1.649l-1.246,4.183L56.214,34.13Z"/></svg>
