<svg id="Layer_1" height="512" viewBox="0 0 128 128" width="512" xmlns="http://www.w3.org/2000/svg" data-name="Layer 1"><path d="m122.737 5.262a1.747 1.747 0 0 0 -1.816-.413c-16.549 5.8-25.89 9.663-33.263 13.754l-.013.007-.074.04c-9.816 5.45-16.271 11.381-25.846 21.615l-18.284-4.533a1.742 1.742 0 0 0 -1.658.461l-17.02 17.02a1.749 1.749 0 0 0 .148 2.607l13.729 10.918c-1.081 1.283-1.987 2.363-2.711 3.23l-.694-.694a1.75 1.75 0 0 0 -2.644.2c-3.689 4.986-5.672 7.856-5.691 7.885a1.75 1.75 0 0 0 .2 2.231l4.214 4.21-5.441 4.061a1.748 1.748 0 0 0 -.19 2.639l11.817 11.818a1.75 1.75 0 0 0 1.237.512h.126a1.753 1.753 0 0 0 1.277-.7l4.06-5.444 4.211 4.211a1.747 1.747 0 0 0 2.23.2c.029-.019 2.9-2 7.885-5.691a1.75 1.75 0 0 0 .2-2.644l-.694-.694c.868-.724 1.948-1.629 3.23-2.711l10.918 13.733a1.751 1.751 0 0 0 1.271.657q.049 0 .1 0a1.748 1.748 0 0 0 1.237-.512l17.02-17.02a1.752 1.752 0 0 0 .462-1.659l-4.534-18.281c10.011-9.373 16.179-16.073 21.6-25.833 4.116-7.384 7.989-16.738 13.812-33.363a1.749 1.749 0 0 0 -.411-1.817zm-79.178 34.1 15.441 3.838c-.887.961-1.8 1.958-2.761 3.007-5.284 6.077-10.43 12.074-15.339 17.859l-12.276-9.766zm-5.012 59.051-8.96-8.96 4.228-3.153 7.885 7.885zm11.3-1.03-19.23-19.233c.732-1.034 1.936-2.718 3.582-4.962l20.613 20.612c-2.244 1.647-3.928 2.851-4.962 3.583zm23.853 1.993-9.766-12.276c5.786-4.906 11.784-10.053 17.9-15.364 1.032-.942 2.017-1.848 2.975-2.733l3.828 15.442zm10.9-34.956c-1.6 1.486-3.3 3.062-5.1 4.7-6.52 5.666-12.954 11.185-19.121 16.404q-3.051 2.582-4.832 4.062l-17.133-17.133q1.481-1.775 4.062-4.832c5.224-6.167 10.738-12.601 16.376-19.091q2.5-2.739 4.728-5.127c9.543-10.241 15.819-16.119 25.173-21.4 6.008.911 10.342 2.533 12.526 4.716s3.813 6.535 4.7 12.541c-5.285 9.362-11.158 15.633-21.379 25.16zm24-30.123c-1.1-4.553-2.72-7.925-4.846-10.051s-5.487-3.741-10.044-4.846a241.172 241.172 0 0 1 24.921-10.031 239.8 239.8 0 0 1 -10.031 24.931z"/><path d="m75.5 64.641c-5.151 4.483-10.173 8.808-14.927 12.853a1.75 1.75 0 1 0 2.268 2.665c4.763-4.054 9.8-8.386 14.957-12.877a1.75 1.75 0 1 0 -2.3-2.641z"/><path d="m81.88 34.392a8.293 8.293 0 0 0 11.728 11.728 8.293 8.293 0 1 0 -11.728-11.728zm9.253 9.253a4.79 4.79 0 1 1 0-6.778 4.8 4.8 0 0 1 0 6.778z"/><path d="m21.825 96.949a8.592 8.592 0 0 0 -6.264 3.393 67.462 67.462 0 0 0 -10.741 20.668 1.751 1.751 0 0 0 2.171 2.17 67.473 67.473 0 0 0 20.668-10.741 8.638 8.638 0 0 0 -5.834-15.49zm5.734 8.983a5.087 5.087 0 0 1 -2.009 3.714 67.973 67.973 0 0 1 -16.271 9.075 67.973 67.973 0 0 1 9.075-16.271 5.1 5.1 0 0 1 3.714-2.009 5.147 5.147 0 0 1 5.491 5.491z"/></svg>